<?xml version="1.0" encoding="UTF-8"?>
<svg xmlns="http://www.w3.org/2000/svg" viewBox="1417.2201999999988 872.520199999999 2098.8496 2893.8896">
  <rect width="100%" height="100%" fill="#000"/>
  <path fill="#f2f8ff" d="M3219.99,1650.15c-122.51-60.93-278.75-61.68-375.49,35.06-159.97,159.97-96.7,227.64-149.57,280.94-98.08,98.08-265.77,28.62-265.77-110.08v-374.94c0-43.99-33.19-82.4-77.09-85.24-48.09-3.11-88.07,34.98-88.07,82.4v1734.99c0,9.44-11.41,14.16-18.08,7.49l-196.24-196.23c-69.65-69.65-109.6-164.73-105.95-263.17,3.53-95.07,44.43-182.26,115.4-245.85,105.43-94.45,167.71-229.79,170.89-371.3,3.18-141.51-52.97-279.52-154.05-378.61l-351.02-344.1c-31.65-31.03-82.7-34.24-115.72-4.67-36.18,32.41-36.98,88.07-2.84,121.52l353.06,346.11c69.35,68,106.35,158.91,104.16,256-2.18,97.1-43.22,186.26-115.55,251.06-106.25,95.19-166.91,226.15-170.82,368.76-3.91,142.6,49.48,276.69,150.35,377.56l359.49,359.48c14.81,14.8,33.8,22.78,53.17,24.1.44.03.87.03,1.31.06,1.46.08,2.92.21,4.37.21.18,0,.36-.02.54-.03.03,0,.06,0,.09,0,21.49,0,42.61-8.39,58.41-24.19l806.09-806.09c5.52,23.87,7.79,48.7,6.48,74.04-3.88,75.07-37.95,142.77-95.93,190.62-1.73,1.43-521,506.42-521,506.42-32.69,31.8-33.41,84.08-1.61,116.77,16.19,16.64,37.68,25,59.2,25s41.52-7.77,57.57-23.39l513.69-499.69c8.29-6.95,16.3-14.22,23.99-21.73v440.21c0,43.98,33.18,82.39,77.07,85.23,48.1,3.12,88.09-34.97,88.09-82.4v-1531.75c0-136.82-76.1-259.67-198.61-320.6ZM3110.44,2561.19c-52.07,50.33-232.14,229.4-232.14,229.4-165.75,165.75-449.16,48.36-449.16-186.05,0-89.55,35.6-175.4,98.99-238.65,63.58-63.44,144.96-144.64,204.23-203.78,7.86-7.84,20.63-7.31,27.86,1.11,58.38,68.02,292.02,310.41,350.65,371.12,7.31,7.57,7.12,19.54-.44,26.85ZM3253.44,2423.21c0,7.61-9.23,11.4-14.57,5.97l-315.95-320.92c-39.23-39.85-59.4-94.69-55.34-150.47,4.06-55.77,31.98-107.12,76.57-140.86,34.76-26.3,74.92-39.68,115.64-39.68,30.21,0,60.73,7.37,89.56,22.27,64.72,33.46,104.08,101.62,104.08,174.48v449.22Z"/>
</svg>
