<?xml version="1.0" encoding="UTF-8"?>
<svg id="Layer_2" data-name="Layer 2" xmlns="http://www.w3.org/2000/svg" viewBox="0 0 5000 5000">
  <defs>
    <style>
      .cls-1 {
        fill: #f2f8ff;
      }
    </style>
  </defs>
  <path class="cls-1" d="M3296.66,1559.65c-135.56-67.42-308.43-68.25-415.48,38.8-177.01,177.01-106.99,251.88-165.5,310.86-108.52,108.52-294.07,31.66-294.07-121.81v-414.87c0-48.67-36.73-91.17-85.3-94.31-53.21-3.44-97.45,38.7-97.45,91.18v1919.77c0,10.44-12.62,15.67-20.01,8.29l-217.13-217.13c-77.07-77.07-121.27-182.28-117.23-291.2,3.9-105.19,49.16-201.67,127.69-272.03,116.65-104.51,185.57-254.26,189.09-410.84,3.52-156.59-58.61-309.28-170.46-418.93l-388.4-380.75c-35.02-34.33-91.51-37.89-128.04-5.17-40.03,35.86-40.92,97.45-3.15,134.47l390.66,382.97c76.74,75.24,117.68,175.84,115.26,283.27-2.41,107.44-47.82,206.1-127.86,277.8-117.56,105.33-184.69,250.24-189.01,408.03-4.33,157.79,54.75,306.15,166.37,417.77l397.78,397.77c16.39,16.37,37.4,25.21,58.83,26.67.48.04.97.04,1.45.07,1.62.08,3.23.23,4.84.23.2,0,.4-.03.6-.03.03,0,.07,0,.1,0,23.78,0,47.15-9.28,64.63-26.76l891.93-891.94c6.1,26.42,8.62,53.89,7.17,81.93-4.29,83.07-41.99,157.98-106.15,210.92-1.92,1.58-576.49,560.35-576.49,560.35-36.17,35.18-36.97,93.03-1.78,129.21,17.91,18.42,41.7,27.66,65.51,27.66s45.95-8.6,63.7-25.88l568.39-552.91c9.17-7.69,18.03-15.73,26.55-24.05v487.09c0,48.66,36.72,91.16,85.28,94.31,53.22,3.45,97.47-38.7,97.47-91.18v-1694.88c0-151.39-84.21-287.32-219.76-354.74ZM3175.45,2567.71c-57.61,55.69-256.86,253.84-256.86,253.84-183.4,183.4-496.99,53.51-496.99-205.86,0-99.09,39.39-194.08,109.53-264.07,70.35-70.19,160.4-160.05,225.98-225.48,8.7-8.67,22.83-8.09,30.83,1.23,64.6,75.26,323.12,343.47,388,410.64,8.09,8.37,7.88,21.62-.49,29.71ZM3333.67,2415.03c0,8.42-10.21,12.61-16.12,6.6l-349.59-355.1c-43.41-44.1-65.73-104.78-61.23-166.5,4.5-61.71,35.38-118.53,84.73-155.86,38.46-29.1,82.9-43.9,127.96-43.9,33.43,0,67.2,8.15,99.1,24.64,71.62,37.02,115.16,112.44,115.16,193.06v497.06Z"/>
</svg>