<?xml version="1.0" encoding="UTF-8"?>
<svg id="Layer_2" data-name="Layer 2" xmlns="http://www.w3.org/2000/svg" viewBox="0 0 5000 5000">
  <defs>
    <style>
      .cls-1 {
        fill: #f2f8ff;
      }
    </style>
  </defs>
  <path class="cls-1" d="M4098.96,612.64c-272.08-135.31-619.05-136.99-833.91,77.87-355.26,355.27-214.75,505.54-332.17,623.92-217.82,217.82-590.23,63.55-590.23-244.48V237.28c0-97.69-73.71-182.99-171.2-189.3-106.8-6.9-195.6,77.68-195.6,183v3853.12c0,20.96-25.34,31.45-40.16,16.63l-435.81-435.8c-154.69-154.68-243.4-365.84-235.3-584.45,7.83-211.13,98.67-404.77,256.28-545.99,234.13-209.77,372.45-510.33,379.51-824.6,7.06-314.28-117.64-620.76-342.13-840.82L778.71,104.89c-70.29-68.91-183.67-76.05-256.99-10.37-80.35,71.98-82.13,195.59-6.32,269.88l784.08,768.65c154.02,151.01,236.19,352.92,231.33,568.54-4.84,215.63-95.97,413.65-256.62,557.56-235.96,211.41-370.68,502.25-379.37,818.95-8.68,316.69,109.89,614.47,333.91,838.49l798.37,798.35c32.89,32.86,75.07,50.59,118.08,53.53.97.07,1.94.07,2.91.13,3.24.17,6.47.47,9.72.47.4,0,.8-.05,1.2-.06.07,0,.14,0,.21,0,47.73,0,94.64-18.63,129.72-53.71l1790.18-1790.19c12.25,53.02,17.31,108.17,14.4,164.44-8.61,166.72-84.28,317.07-213.05,423.33-3.85,3.17-1157.05,1124.67-1157.05,1124.67-72.61,70.62-74.2,186.73-3.58,259.33,35.94,36.97,83.69,55.52,131.47,55.52s92.22-17.26,127.86-51.94l1140.81-1109.74c18.41-15.44,36.2-31.57,53.28-48.27v977.63c0,97.67,73.7,182.97,171.16,189.29,106.81,6.93,195.63-77.67,195.63-183V1324.63c0-303.86-169.01-576.67-441.08-712ZM3855.69,2635.9c-115.63,111.78-515.54,509.47-515.54,509.47-368.1,368.1-997.5,107.4-997.5-413.18,0-198.88,79.06-389.53,219.84-530.01,141.2-140.89,321.93-321.23,453.55-452.56,17.45-17.41,45.82-16.24,61.88,2.47,129.66,151.06,648.53,689.37,778.74,824.19,16.24,16.81,15.82,43.39-.98,59.62ZM4173.25,2329.46c0,16.91-20.5,25.31-32.36,13.25l-701.66-712.71c-87.13-88.51-131.92-210.3-122.9-334.18,9.03-123.86,71.01-237.89,170.05-312.83,77.19-58.4,166.38-88.12,256.82-88.12,67.1,0,134.88,16.36,198.9,49.46,143.74,74.31,231.14,225.67,231.14,387.48v997.63Z"/>
</svg>